<?xml version="1.0" encoding="UTF-8" standalone="no"?>
<svg width="76px" height="23px" viewBox="0 0 76 23" version="1.1" xmlns="http://www.w3.org/2000/svg" xmlns:xlink="http://www.w3.org/1999/xlink" xmlns:sketch="http://www.bohemiancoding.com/sketch/ns">
    <title>Slice 1</title>
    <description>Created with Sketch (http://www.bohemiancoding.com/sketch)</description>
    <defs></defs>
    <g id="Page-1" stroke="none" stroke-width="1" fill="none" fill-rule="evenodd" sketch:type="MSPage">
        <g id="icon-menu-button" sketch:type="MSLayerGroup">
            <g id="Page-1" fill="#1C536E" sketch:type="MSShapeGroup">
                <g id="icon-menu-button">
                    <g id="Page-1">
                        <g id="Rectangle-1-+-Rectangle-1-copy-+-Rectangle-1-copy-2">
                            <rect d="M0,0 L0,5 L28,5 L28,0 L0,0 Z M0,0" id="Rectangle-1" x="0" y="0" width="28" height="5"></rect>
                            <rect d="M0,9 L0,14 L28,14 L28,9 L0,9 Z M0,9" id="Rectangle-1-copy" x="0" y="9" width="28" height="5"></rect>
                            <rect d="M0,18 L0,23 L28,23 L28,18 L0,18 Z M0,18" id="Rectangle-1-copy-2" x="0" y="18" width="28" height="5"></rect>
                        </g>
                    </g>
                </g>
            </g>
            <g id="Page-1-copy" transform="translate(48.000000, 0.000000)" fill="#FFFFFF" sketch:type="MSShapeGroup">
                <g id="icon-menu-button">
                    <g id="Page-1">
                        <g id="Rectangle-1-+-Rectangle-1-copy-+-Rectangle-1-copy-2">
                            <rect d="M0,0 L0,5 L28,5 L28,0 L0,0 Z M0,0" id="Rectangle-1" x="0" y="0" width="28" height="5"></rect>
                            <rect d="M0,9 L0,14 L28,14 L28,9 L0,9 Z M0,9" id="Rectangle-1-copy" x="0" y="9" width="28" height="5"></rect>
                            <rect d="M0,18 L0,23 L28,23 L28,18 L0,18 Z M0,18" id="Rectangle-1-copy-2" x="0" y="18" width="28" height="5"></rect>
                        </g>
                    </g>
                </g>
            </g>
        </g>
    </g>
</svg>